<?xml version="1.0" encoding="UTF-8"?><svg id="Layer_1" xmlns="http://www.w3.org/2000/svg" xmlns:xlink="http://www.w3.org/1999/xlink" viewBox="0 0 1920 1080"><defs><linearGradient id="linear-gradient" x1="455.88" y1="379.23" x2="562.6" y2="-158.94" gradientTransform="translate(-118.76 335.06) rotate(-24.96)" gradientUnits="userSpaceOnUse"><stop offset="0" stop-color="#9feeff"/><stop offset="1" stop-color="#ba75ff"/></linearGradient><linearGradient id="linear-gradient-2" x1="697.14" y1="786.3" x2="803.86" y2="248.12" gradientTransform="translate(2437.48 1234.63) rotate(167.1)" xlink:href="#linear-gradient"/><linearGradient id="linear-gradient-3" x1="1362.45" y1="1151.67" x2="1422.91" y2="846.82" gradientTransform="translate(3681.36 -635.65) rotate(136.37) scale(1.99 1)" xlink:href="#linear-gradient"/></defs><path d="m406.26,369.8c6.35-20.5,234.5,85.44,217.82,22.85-139.25-105.58-199.1-175.13,100.85-49.36,71.3,5.15-178.5-194.86,21.05-244.67,125.49-238.58-131.48-123.91-131.48-123.91,0,0-125.59,182.47-154.43,111.75-16.86-41.34-143.18-248.39-97.36-69.97,17.02,66.28-137.19,71.86-150.3,34.74-13.11-37.12-102.73,18.74-122.65,15.88C-27.92,109.5-80.94,328.29-3.49,350.27c0,0,217.21-67.14,154.74,94.93-62.47,162.07,184.05,66.86,184.05,66.86,33.67-81.22-37.82-96.49,70.97-142.25Z" style="fill:url(#linear-gradient);"/><path d="m1605.27,747.99c-10.5,18.72-211.46-132.56-208.23-67.86,114.11,132.35,158.11,212.87-108.94,27.2-68.65-19.94,133.83,227.86-71.71,234.87-172.58,207.09,102.68,148.65,102.68,148.65,0,0,160.95-152.19,174.37-77.02,7.85,43.95,88.11,272.83,80.59,88.77-2.79-68.38,149.17-41.61,154.24-2.56,5.06,39.04,104.38,3.14,123.26,10.1,123.94-16.86,221.51-219.74,150.37-257.42,0,0-226.44,20.27-131.49-125.17,94.96-145.43-166.01-103.85-166.01-103.85-49.9,72.39,16.82,102.26-99.13,124.28Z" style="fill:url(#linear-gradient-2);"/><path d="m968.91,457.67c-5.54,17.73-213.01,65-197.29,99.93,127.04-.2,181.89,16.62-90.74,88.22-64.56,34.34,163.44,41.4-16.59,182.46-111.14,233.78,120.2,16.76,120.2,16.76,0,0,111.8-194.56,138.59-160.41,15.67,19.96,132.03,97.66,88.79-2.84-16.06-37.34,123.4-123.31,135.63-104.31s92.76-67.79,110.8-76.39c106.04-92.3,151.82-273.66,81.53-247.83,0,0-195.84,162.6-140.95,15.91,54.89-146.69-167.18,51.15-167.18,51.15-29.65,74.77,35.18,47.41-62.78,137.34Z" style="fill:url(#linear-gradient-3);"/></svg>